<svg width="24" height="24" viewBox="0 0 24 24" fill="none" xmlns="http://www.w3.org/2000/svg">
<path fill-rule="evenodd" clip-rule="evenodd" d="M5.4398 8.97C4.84219 8.37239 4.03167 8.03667 3.18652 8.03667C2.34136 8.03667 1.53084 8.37244 0.933234 8.97009C-0.311109 10.2145 -0.311062 12.232 0.933281 13.4764C2.73319 15.2764 5.42845 17.9718 7.22841 19.7718C7.82597 20.3694 8.63648 20.7052 9.48164 20.7052C10.3267 20.7052 11.1373 20.3694 11.7349 19.7719L23.0667 8.44008C24.311 7.19578 24.3111 5.17838 23.067 3.93389L23.0666 3.93356C22.469 3.33586 21.6585 3.00005 20.8133 3C19.9681 2.99995 19.1575 3.33567 18.5599 3.93333L9.74644 12.7468C9.67617 12.817 9.58088 12.8565 9.4815 12.8565C9.38212 12.8565 9.28683 12.817 9.21656 12.7468L5.4398 8.97Z" fill="white"/>
<path fill-rule="evenodd" clip-rule="evenodd" d="M20.2975 3.042C20.9515 3.1492 21.5606 3.45872 22.0354 3.93356L22.0357 3.93389C23.2799 5.17838 23.2798 7.19578 22.0354 8.44008L10.7036 19.7719C10.229 20.2465 9.61997 20.556 8.96606 20.6632C9.13542 20.691 9.30778 20.7052 9.48164 20.7052C10.3268 20.7052 11.1373 20.3694 11.7349 19.7719L23.0667 8.44008C24.311 7.19578 24.3111 5.17838 23.067 3.93389L23.0666 3.93356C22.469 3.33586 21.6585 3.00005 20.8133 3C20.6394 3 20.4669 3.0142 20.2975 3.042Z" fill="white"/>
</svg>
