<svg width="31" height="30" viewBox="0 0 31 30" fill="none" xmlns="http://www.w3.org/2000/svg">
<path d="M17.0522 18.5157C17.185 17.6877 17.3869 16.8721 17.6555 16.0777C17.7554 15.7878 12.9112 15.7879 13.011 16.0781C13.2797 16.8724 13.4816 17.6878 13.6146 18.5156C13.4958 19.1806 13.2977 19.829 13.0245 20.4469C12.8933 20.7425 17.7736 20.7422 17.6417 20.4474C17.3689 19.8293 17.171 19.1808 17.0522 18.5157Z" fill="#FFA000"/>
<path d="M26.3539 4.21875H20.0208C19.7704 4.21875 19.2261 15.406 19.4468 15.4568C19.7081 15.5086 19.9742 15.5329 20.2406 15.5292C24.7421 15.2727 26.7468 11.2304 27.5167 5.67352C27.5429 5.50058 27.533 5.3241 27.4877 5.15517C27.4424 4.98623 27.3626 4.82849 27.2534 4.69186C27.1442 4.55524 27.008 4.44268 26.8532 4.36126C26.6984 4.27984 26.5284 4.23132 26.3539 4.21875ZM25.1569 7.18594C24.2666 13.1287 20.6434 13.1969 20.4896 13.1969C20.2376 13.2017 20.2305 6.09375 20.4896 6.09375H24.2757C24.4078 6.10106 24.5368 6.13601 24.6545 6.19634C24.7723 6.25667 24.876 6.34104 24.9591 6.44398C25.0421 6.54693 25.1026 6.66616 25.1367 6.79396C25.1708 6.92177 25.1777 7.05531 25.1569 7.18594Z" fill="#FFA000"/>
<path d="M10.6531 4.21875H4.31996C4.14556 4.23143 3.97567 4.28003 3.82094 4.36148C3.66621 4.44294 3.52999 4.55551 3.42083 4.69211C3.31167 4.82872 3.23193 4.98641 3.1866 5.1553C3.14128 5.32418 3.13136 5.50061 3.15746 5.67352C3.92936 11.2329 5.92965 15.2699 10.4336 15.5292C10.7001 15.5328 10.9662 15.5086 11.2276 15.4568C11.4478 15.406 10.9036 4.21875 10.6531 4.21875ZM10.1844 13.1969C10.0306 13.1969 6.40736 13.1287 5.51725 7.18552C5.49646 7.05494 5.50332 6.92146 5.53737 6.79371C5.57143 6.66595 5.63192 6.54677 5.71493 6.44386C5.79795 6.34095 5.90164 6.25662 6.0193 6.19631C6.13696 6.136 6.26597 6.10106 6.39798 6.09375H10.1844C10.4432 6.09375 10.4432 13.1969 10.1844 13.1969Z" fill="#FFA000"/>
<path d="M19.7306 25.6892L18.9989 22.0312H11.6677L10.9364 25.6892C10.9085 25.827 19.7583 25.827 19.7306 25.6892Z" fill="#67676B"/>
<path d="M19.5521 25.3125H11.1146C10.5968 25.3125 10.1771 25.7322 10.1771 26.25V28.125C10.1771 28.6428 10.5968 29.0625 11.1146 29.0625H19.5521C20.0698 29.0625 20.4896 28.6428 20.4896 28.125V26.25C20.4896 25.7322 20.0698 25.3125 19.5521 25.3125Z" fill="#46464E"/>
<path d="M18.3802 20.1562H11.8177C11.1705 20.1562 10.6458 20.6809 10.6458 21.3281V21.7969C10.6458 22.4441 11.1705 22.9688 11.8177 22.9688H18.3802C19.0274 22.9688 19.5521 22.4441 19.5521 21.7969V21.3281C19.5521 20.6809 19.0274 20.1562 18.3802 20.1562Z" fill="#46464E"/>
<path d="M21.8958 2.8125H8.77081V10.3125C9.13227 19.0207 21.5376 19.014 21.8958 10.3125V2.8125Z" fill="#FFC107"/>
<path d="M15.3333 5.625C10.0213 5.79178 10.02 13.4262 15.3333 13.5938C20.6451 13.4268 20.6464 5.79272 15.3333 5.625Z" fill="#FFA000"/>
<path d="M15.4658 11.5573V12.1198H14.9898V11.5573C14.6872 11.5572 14.3935 11.4549 14.1564 11.2669C13.9193 11.079 13.7527 10.8164 13.6835 10.5218L14.5018 10.3346C14.5424 10.5015 14.6432 10.6476 14.7849 10.7447C14.9266 10.8419 15.0991 10.8833 15.2695 10.861C15.688 10.9139 16.097 10.5095 15.7396 10.2064C15.3595 10.0228 14.2553 9.86629 14.1253 9.56686C13.9986 9.39753 13.92 9.19714 13.8978 8.98684C13.8757 8.77655 13.9107 8.56416 13.9992 8.37214C14.0878 8.18011 14.2266 8.01557 14.4009 7.89591C14.5753 7.77625 14.7787 7.70591 14.9898 7.69232V7.22217H15.4658V7.68623C15.7323 7.69039 15.991 7.77699 16.2063 7.93411C16.4216 8.09124 16.5829 8.31119 16.6682 8.56373L15.9182 8.81367C15.8126 8.15629 14.3589 8.24972 14.8467 8.93732C15.3901 9.23836 16.2668 9.14404 16.5888 9.7192C16.698 9.91024 16.754 10.1271 16.7509 10.3472C16.7477 10.5673 16.6855 10.7825 16.5708 10.9703C16.456 11.1581 16.2929 11.3117 16.0986 11.4149C15.9042 11.5182 15.6857 11.5674 15.4658 11.5573Z" fill="#FFD54F"/>
<path d="M21.4271 0.9375H9.23956C8.8666 0.9375 8.50892 1.08566 8.24519 1.34938C7.98147 1.6131 7.83331 1.97079 7.83331 2.34375C7.83331 2.71671 7.98147 3.0744 8.24519 3.33812C8.50892 3.60184 8.8666 3.75 9.23956 3.75H21.4271C21.8 3.75 22.1577 3.60184 22.4214 3.33812C22.6852 3.0744 22.8333 2.71671 22.8333 2.34375C22.8333 1.97079 22.6852 1.6131 22.4214 1.34938C22.1577 1.08566 21.8 0.9375 21.4271 0.9375Z" fill="#FFA000"/>
</svg>
