<svg width="30" height="30" viewBox="0 0 30 30" fill="none" xmlns="http://www.w3.org/2000/svg">
<path d="M13.5625 8.04334V26.7186C13.5625 27.0998 13.7139 27.4655 13.9835 27.735C14.2531 28.0046 14.6187 28.1561 15 28.1561C15.3812 28.1561 15.7468 28.0046 16.0164 27.735C16.286 27.4655 16.4375 27.0998 16.4375 26.7186V8.04327L23.1941 14.9142L23.1941 14.9142C23.3265 15.0488 23.4841 15.156 23.6579 15.2297C23.8318 15.3034 24.0184 15.3421 24.2072 15.3436C24.396 15.3452 24.5832 15.3096 24.7582 15.2387C24.9332 15.1679 25.0926 15.0634 25.2272 14.931C25.3617 14.7986 25.4689 14.641 25.5426 14.4672C25.6163 14.2933 25.655 14.1067 25.6566 13.9179C25.6581 13.7292 25.6225 13.5419 25.5517 13.3669C25.4809 13.1919 25.3763 13.0326 25.244 12.898C25.2439 12.898 25.2439 12.898 25.2439 12.8979L16.0431 3.54223C15.9128 3.40477 15.7566 3.29441 15.5835 3.21751C15.4084 3.13976 15.2196 3.09778 15.0281 3.09403C14.8366 3.09028 14.6463 3.12484 14.4683 3.19567C14.2904 3.26651 14.1283 3.3722 13.9918 3.50653L13.9918 3.50652L13.9889 3.50939L13.9764 3.52189L13.9764 3.52188L13.9735 3.52487L4.75597 12.898L4.75593 12.898C4.48858 13.17 4.3402 13.5369 4.34344 13.9183C4.34504 14.1071 4.38381 14.2937 4.45755 14.4676C4.53128 14.6414 4.63853 14.799 4.77318 14.9314L4.77318 14.9314C4.90782 15.0637 5.06722 15.1683 5.24227 15.2391C5.41732 15.3099 5.6046 15.3455 5.79341 15.3439C5.98222 15.3423 6.16887 15.3035 6.3427 15.2297C6.51653 15.156 6.67413 15.0488 6.80651 14.9141L13.5625 8.04334Z" fill="white" stroke="white"/>
</svg>
